# xmcd CD database generated by RipIT
#
# Track frame offsets:
# 150
# 11262
# 24272
# 42602
# 65391
# 87015
# 102176
# 119969
# 138583
# 161134
# 170334
# 174434
#
# Disc length: 2923 seconds
#
# Revision: 0
# Processed by: cddbd v1.5.2PL0 Copyright (c) Steve Scherf et al.
# Submitted via: RipIT 3.6.0 www.suwald.com/ripit/ripit.html on 2008-08-19 at 15:09
#
DISCID=9a0b690c
DTITLE=Doll By Doll - Gypsy Blood
DYEAR=1979
DGENRE=rock
TTITLE0=Teenage Lightning
TTITLE1=Gypsy Blood
TTITLE2=Stripshow
TTITLE3=Human Face
TTITLE4=Hey Sweetheart
TTITLE5=Binary Fiction
TTITLE6=Hell Games
TTITLE7=Forbidden Worlds
TTITLE8=Highland Rain
TTITLE9=Endgame
TTITLE10=When A Man Dies
TTITLE11=One Two Blues (Live)
EXTD=
EXTT0=
EXTT1=
EXTT2=
EXTT3=
EXTT4=
EXTT5=
EXTT6=
EXTT7=
EXTT8=
EXTT9=
EXTT10=
EXTT11=
PLAYORDER=
